<svg width="390" height="844" viewBox="0 0 390 844" fill="none" xmlns="http://www.w3.org/2000/svg">
  <rect width="390" height="844" rx="38" fill="#20251F"/>
  <rect x="12" y="12" width="366" height="820" rx="34" fill="#F7F8F3"/>
  <text x="195" y="44" text-anchor="middle" font-family="Comic Sans MS, Microsoft YaHei, sans-serif" font-size="15" fill="#20251F">小馋饭记</text>
  <g transform="translate(32 74)">
    <rect width="108" height="32" rx="14" fill="#F8E5DC"/>
    <text x="16" y="22" font-size="14" font-family="Microsoft YaHei, sans-serif" fill="#A75031">🥘 菜灵感</text>
    <text x="0" y="74" font-size="30" font-weight="700" font-family="Microsoft YaHei, sans-serif" fill="#20251F">今天吃点有谱的</text>
    <text x="0" y="106" font-size="14" font-family="Microsoft YaHei, sans-serif" fill="#5D675B">关键词一丢，一天菜单和备菜清单一起出。</text>
  </g>
  <rect x="24" y="200" width="342" height="194" rx="18" fill="#FFFFFF" stroke="#DDE4D7"/>
  <text x="40" y="234" font-size="18" font-weight="700" font-family="Microsoft YaHei, sans-serif" fill="#20251F">灵感关键词</text>
  <rect x="40" y="254" width="310" height="68" rx="18" fill="#FFFFFF" stroke="#DDE4D7"/>
  <text x="56" y="294" font-size="16">✨</text><text x="88" y="294" font-size="14" font-family="Microsoft YaHei, sans-serif" fill="#5D675B">清淡 鸡蛋 番茄 高蛋白</text>
  <g transform="translate(40 340)">
    <rect width="62" height="30" rx="15" fill="#DDEFE8"/><text x="12" y="20" font-size="12" font-family="Microsoft YaHei, sans-serif" fill="#2F7D68">🥬 清淡</text>
    <rect x="72" width="62" height="30" rx="15" fill="#EEF3EA"/><text x="84" y="20" font-size="12" font-family="Microsoft YaHei, sans-serif" fill="#5D675B">⚡ 省事</text>
    <rect x="144" width="62" height="30" rx="15" fill="#EEF3EA"/><text x="156" y="20" font-size="12" font-family="Microsoft YaHei, sans-serif" fill="#5D675B">🌶️ 川菜</text>
  </g>
  <text x="24" y="438" font-size="20" font-weight="700" font-family="Microsoft YaHei, sans-serif" fill="#20251F">今日菜谱贴</text>
  <g transform="translate(24 458)">
    <rect width="342" height="92" rx="18" fill="#FFFFFF" stroke="#A8D2C3"/>
    <text x="18" y="32" font-size="15" font-family="Microsoft YaHei, sans-serif" fill="#2F7D68">🥣 早餐</text>
    <text x="18" y="62" font-size="21" font-weight="700" font-family="Microsoft YaHei, sans-serif" fill="#20251F">鸡蛋火腿三明治</text>
    <text x="276" y="34" font-size="13" font-family="Microsoft YaHei, sans-serif" fill="#87907F">12 分钟</text>
  </g>
  <g transform="translate(24 568)">
    <rect width="342" height="92" rx="18" fill="#FFFFFF" stroke="#A8D2C3"/>
    <text x="18" y="32" font-size="15" font-family="Microsoft YaHei, sans-serif" fill="#2F7D68">🍱 午餐</text>
    <text x="18" y="62" font-size="21" font-weight="700" font-family="Microsoft YaHei, sans-serif" fill="#20251F">番茄牛肉豆腐汤</text>
    <text x="276" y="34" font-size="13" font-family="Microsoft YaHei, sans-serif" fill="#87907F">30 分钟</text>
  </g>
  <rect x="24" y="684" width="342" height="82" rx="18" fill="#FFFCF4" stroke="#F2D7A7"/>
  <text x="42" y="718" font-size="18" font-weight="700" font-family="Microsoft YaHei, sans-serif" fill="#20251F">备菜清单</text>
  <text x="42" y="746" font-size="14" font-family="Microsoft YaHei, sans-serif" fill="#5D675B">鸡蛋、番茄、牛肉、豆腐、西兰花</text>
  <g transform="translate(24 780)">
    <text x="38" y="22" text-anchor="middle" font-size="18">🍚</text><text x="38" y="42" text-anchor="middle" font-size="11" font-family="Microsoft YaHei, sans-serif" fill="#87907F">饭卡</text>
    <text x="125" y="22" text-anchor="middle" font-size="18">🥘</text><text x="125" y="42" text-anchor="middle" font-size="11" font-family="Microsoft YaHei, sans-serif" fill="#2F7D68">菜灵感</text>
    <text x="214" y="22" text-anchor="middle" font-size="18">📍</text><text x="214" y="42" text-anchor="middle" font-size="11" font-family="Microsoft YaHei, sans-serif" fill="#87907F">店记</text>
    <text x="304" y="22" text-anchor="middle" font-size="18">🏠</text><text x="304" y="42" text-anchor="middle" font-size="11" font-family="Microsoft YaHei, sans-serif" fill="#87907F">小窝</text>
  </g>
</svg>
