<svg width="390" height="844" viewBox="0 0 390 844" fill="none" xmlns="http://www.w3.org/2000/svg">
  <rect width="390" height="844" rx="38" fill="#20251F"/>
  <rect x="12" y="12" width="366" height="820" rx="34" fill="#F7F8F3"/>
  <rect x="12" y="12" width="366" height="820" rx="34" fill="url(#bg)"/>
  <text x="195" y="44" text-anchor="middle" font-family="Comic Sans MS, Microsoft YaHei, sans-serif" font-size="15" fill="#20251F">小馋饭记</text>

  <g transform="translate(34 74)">
    <rect x="0" y="0" width="100" height="32" rx="14" fill="#FFF3D9" stroke="#E9D7B8"/>
    <text x="16" y="22" font-size="14" font-family="Microsoft YaHei, sans-serif" fill="#5A4934">🍚 今日饭卡</text>
    <text x="0" y="74" font-size="30" font-weight="700" font-family="Microsoft YaHei, sans-serif" fill="#20251F">今天饭卡刷了吗</text>
    <text x="0" y="106" font-size="14" font-family="Microsoft YaHei, sans-serif" fill="#5D675B">轻轻打个卡，给今天的胃留一张小票。</text>
  </g>

  <rect x="24" y="206" width="342" height="146" rx="18" fill="#FFFFFF" stroke="#C9E0D6"/>
  <text x="40" y="236" font-size="18" font-weight="700" font-family="Microsoft YaHei, sans-serif" fill="#20251F">饭卡打卡</text>
  <rect x="272" y="216" width="72" height="30" rx="14" fill="#DDEFE8"/>
  <text x="291" y="236" font-size="13" font-weight="700" font-family="Microsoft YaHei, sans-serif" fill="#2F7D68">0 餐</text>

  <g transform="translate(38 260)">
    <rect width="68" height="76" rx="14" fill="#FFF2CD" stroke="#F0C879"/>
    <text x="34" y="42" text-anchor="middle" font-size="30">🥣</text>
    <text x="34" y="64" text-anchor="middle" font-size="14" font-weight="700" font-family="Microsoft YaHei, sans-serif" fill="#344033">早餐</text>
  </g>
  <g transform="translate(114 260)">
    <rect width="68" height="76" rx="14" fill="#E7F2DB" stroke="#2F7D68" stroke-width="2"/>
    <text x="34" y="42" text-anchor="middle" font-size="30">🍱</text>
    <text x="34" y="64" text-anchor="middle" font-size="14" font-weight="700" font-family="Microsoft YaHei, sans-serif" fill="#2F7D68">午餐</text>
  </g>
  <g transform="translate(190 260)">
    <rect width="68" height="76" rx="14" fill="#E5EFF8" stroke="#AFCBE2"/>
    <text x="34" y="42" text-anchor="middle" font-size="30">🍲</text>
    <text x="34" y="64" text-anchor="middle" font-size="14" font-weight="700" font-family="Microsoft YaHei, sans-serif" fill="#344033">晚餐</text>
  </g>
  <g transform="translate(266 260)">
    <rect width="68" height="76" rx="14" fill="#FCE5E4" stroke="#E8B7B4"/>
    <text x="34" y="42" text-anchor="middle" font-size="30">🍓</text>
    <text x="34" y="64" text-anchor="middle" font-size="14" font-weight="700" font-family="Microsoft YaHei, sans-serif" fill="#344033">加餐</text>
  </g>

  <rect x="24" y="372" width="342" height="292" rx="18" fill="#FFFCF4" stroke="#F2D7A7"/>
  <text x="40" y="404" font-size="20" font-weight="700" font-family="Microsoft YaHei, sans-serif" fill="#20251F">记一餐</text>
  <text x="40" y="428" font-size="13" font-family="Microsoft YaHei, sans-serif" fill="#5D675B">像给今天的饭卡盖个章。</text>
  <rect x="40" y="448" width="310" height="44" rx="14" fill="#FFFFFF" stroke="#DDE4D7"/>
  <text x="56" y="476" font-size="14">🍽️</text><text x="88" y="476" font-size="14" font-family="Microsoft YaHei, sans-serif" fill="#87907F">番茄牛肉面</text>
  <rect x="40" y="504" width="310" height="44" rx="14" fill="#F5FBF7" stroke="#DDE4D7"/>
  <text x="56" y="532" font-size="14">👥</text><text x="88" y="532" font-size="14" font-family="Microsoft YaHei, sans-serif" fill="#87907F">对象、爸妈</text>
  <rect x="40" y="560" width="310" height="44" rx="14" fill="#FFFFFF" stroke="#DDE4D7"/>
  <text x="56" y="588" font-size="14">💬</text><text x="88" y="588" font-size="14" font-family="Microsoft YaHei, sans-serif" fill="#87907F">清淡 · 满意</text>
  <g transform="translate(40 620)">
    <rect width="62" height="28" rx="14" fill="#DDEFE8"/><text x="17" y="19" font-size="12" font-family="Microsoft YaHei, sans-serif" fill="#2F7D68">清淡</text>
    <rect x="72" width="62" height="28" rx="14" fill="#EEF3EA"/><text x="89" y="19" font-size="12" font-family="Microsoft YaHei, sans-serif" fill="#5D675B">外食</text>
    <rect x="144" width="74" height="28" rx="14" fill="#F8E5DC"/><text x="160" y="19" font-size="12" font-family="Microsoft YaHei, sans-serif" fill="#A75031">放纵餐</text>
  </g>

  <rect x="24" y="690" width="342" height="74" rx="18" fill="#F5FBF7" stroke="#C9E0D6"/>
  <text x="40" y="722" font-size="18" font-weight="700" font-family="Microsoft YaHei, sans-serif" fill="#20251F">本周回顾</text>
  <text x="40" y="746" font-size="13" font-family="Microsoft YaHei, sans-serif" fill="#5D675B">不打分，只帮你回想。</text>

  <g transform="translate(24 780)">
    <text x="38" y="22" text-anchor="middle" font-size="18">🍚</text><text x="38" y="42" text-anchor="middle" font-size="11" font-family="Microsoft YaHei, sans-serif" fill="#2F7D68">饭卡</text>
    <text x="125" y="22" text-anchor="middle" font-size="18">🥘</text><text x="125" y="42" text-anchor="middle" font-size="11" font-family="Microsoft YaHei, sans-serif" fill="#87907F">菜灵感</text>
    <text x="214" y="22" text-anchor="middle" font-size="18">📍</text><text x="214" y="42" text-anchor="middle" font-size="11" font-family="Microsoft YaHei, sans-serif" fill="#87907F">店记</text>
    <text x="304" y="22" text-anchor="middle" font-size="18">🏠</text><text x="304" y="42" text-anchor="middle" font-size="11" font-family="Microsoft YaHei, sans-serif" fill="#87907F">小窝</text>
  </g>

  <defs>
    <linearGradient id="bg" x1="195" y1="12" x2="195" y2="832" gradientUnits="userSpaceOnUse">
      <stop stop-color="#FFF7EC"/>
      <stop offset="0.45" stop-color="#F7F8F3"/>
    </linearGradient>
  </defs>
</svg>
