<svg width="390" height="844" viewBox="0 0 390 844" fill="none" xmlns="http://www.w3.org/2000/svg">
  <rect width="390" height="844" rx="38" fill="#20251F"/>
  <rect x="12" y="12" width="366" height="820" rx="34" fill="#F7F8F3"/>
  <text x="195" y="44" text-anchor="middle" font-family="Comic Sans MS, Microsoft YaHei, sans-serif" font-size="15" fill="#20251F">小馋饭记</text>
  <g transform="translate(32 74)">
    <rect width="116" height="32" rx="14" fill="#FFF3D9"/>
    <text x="16" y="22" font-size="14" font-family="Microsoft YaHei, sans-serif" fill="#5A4934">🏠 小窝冰箱贴</text>
    <text x="0" y="74" font-size="30" font-weight="700" font-family="Microsoft YaHei, sans-serif" fill="#20251F">饭搭子的偏好</text>
    <text x="0" y="106" font-size="14" font-family="Microsoft YaHei, sans-serif" fill="#5D675B">数据保存在本机，不公开展示。</text>
  </g>
  <rect x="24" y="200" width="342" height="150" rx="18" fill="#F5FBF7" stroke="#C9E0D6"/>
  <text x="42" y="234" font-size="18" font-weight="700" font-family="Microsoft YaHei, sans-serif" fill="#20251F">本地数据</text>
  <g transform="translate(46 258)">
    <rect width="78" height="70" rx="18" fill="#FFFFFF"/><text x="39" y="26" text-anchor="middle" font-size="20">🍚</text><text x="39" y="49" text-anchor="middle" font-size="20" font-weight="700" font-family="Microsoft YaHei, sans-serif" fill="#2F7D68">12</text><text x="39" y="65" text-anchor="middle" font-size="11" font-family="Microsoft YaHei, sans-serif" fill="#87907F">饮食</text>
    <rect x="100" width="78" height="70" rx="18" fill="#FFFFFF"/><text x="139" y="26" text-anchor="middle" font-size="20">🥘</text><text x="139" y="49" text-anchor="middle" font-size="20" font-weight="700" font-family="Microsoft YaHei, sans-serif" fill="#2F7D68">3</text><text x="139" y="65" text-anchor="middle" font-size="11" font-family="Microsoft YaHei, sans-serif" fill="#87907F">菜单</text>
    <rect x="200" width="78" height="70" rx="18" fill="#FFFFFF"/><text x="239" y="26" text-anchor="middle" font-size="20">📍</text><text x="239" y="49" text-anchor="middle" font-size="20" font-weight="700" font-family="Microsoft YaHei, sans-serif" fill="#2F7D68">8</text><text x="239" y="65" text-anchor="middle" font-size="11" font-family="Microsoft YaHei, sans-serif" fill="#87907F">店记</text>
  </g>
  <rect x="24" y="374" width="342" height="118" rx="18" fill="#FFFCF4" stroke="#F2D7A7"/>
  <text x="42" y="408" font-size="18" font-weight="700" font-family="Microsoft YaHei, sans-serif" fill="#20251F">怎么称呼你</text>
  <rect x="42" y="428" width="306" height="44" rx="18" fill="#FFFFFF" stroke="#DDE4D7"/>
  <text x="58" y="456" font-size="14">👋</text><text x="90" y="456" font-size="14" font-family="Microsoft YaHei, sans-serif" fill="#5D675B">阿辰</text>
  <rect x="24" y="516" width="342" height="164" rx="18" fill="#FFFFFF" stroke="#A8D2C3"/>
  <text x="42" y="550" font-size="18" font-weight="700" font-family="Microsoft YaHei, sans-serif" fill="#20251F">做饭偏好</text>
  <rect x="42" y="570" width="306" height="44" rx="18" fill="#FFFFFF" stroke="#DDE4D7"/>
  <text x="58" y="598" font-size="14">🥢</text><text x="90" y="598" font-size="14" font-family="Microsoft YaHei, sans-serif" fill="#5D675B">家常、清淡、快手</text>
  <rect x="42" y="626" width="306" height="44" rx="18" fill="#FFFFFF" stroke="#DDE4D7"/>
  <text x="58" y="654" font-size="14">⏱️</text><text x="90" y="654" font-size="14" font-family="Microsoft YaHei, sans-serif" fill="#5D675B">30 分钟</text>
  <rect x="24" y="704" width="342" height="62" rx="18" fill="#FFFFFF" stroke="#DDE4D7"/>
  <text x="42" y="740" font-size="15" font-family="Microsoft YaHei, sans-serif" fill="#5D675B">🔒 只做本机记录，不做公开社区。</text>
  <g transform="translate(24 780)">
    <text x="38" y="22" text-anchor="middle" font-size="18">🍚</text><text x="38" y="42" text-anchor="middle" font-size="11" font-family="Microsoft YaHei, sans-serif" fill="#87907F">饭卡</text>
    <text x="125" y="22" text-anchor="middle" font-size="18">🥘</text><text x="125" y="42" text-anchor="middle" font-size="11" font-family="Microsoft YaHei, sans-serif" fill="#87907F">菜灵感</text>
    <text x="214" y="22" text-anchor="middle" font-size="18">📍</text><text x="214" y="42" text-anchor="middle" font-size="11" font-family="Microsoft YaHei, sans-serif" fill="#87907F">店记</text>
    <text x="304" y="22" text-anchor="middle" font-size="18">🏠</text><text x="304" y="42" text-anchor="middle" font-size="11" font-family="Microsoft YaHei, sans-serif" fill="#2F7D68">小窝</text>
  </g>
</svg>
